<svg xmlns="http://www.w3.org/2000/svg" width="512" height="512" viewBox="0 0 512 512" role="img" aria-label="Dukani logo">
  <defs>
    <linearGradient id="cloudBlue" x1="0" y1="0" x2="1" y2="1">
      <stop offset="0%" stop-color="#38bdf8"/>
      <stop offset="100%" stop-color="#1d4ed8"/>
    </linearGradient>
  </defs>
  <rect width="512" height="512" fill="#f8fafc"/>
  <g transform="translate(40 60)">
    <path d="M312 184H112c-41 0-74-31-74-70 0-36 28-66 64-70 13-41 52-70 97-70 47 0 88 31 99 74 2-1 5-1 8-1 34 0 62 26 66 59 30 5 52 30 52 60 0 36-31 66-68 66H312z" fill="url(#cloudBlue)"/>
    <g transform="translate(126 104)">
      <rect x="0" y="34" width="172" height="132" rx="12" fill="#ffffff" stroke="#dbeafe" stroke-width="4"/>
      <path d="M6 46h160l-12-34H18z" fill="#f59e0b"/>
      <path d="M31 12l-12 34M69 12l-9 34M106 12l9 34M143 12l12 34" stroke="#ffffff" stroke-width="6" stroke-linecap="round"/>
      <rect x="24" y="78" width="44" height="44" rx="6" fill="#2563eb"/>
      <path d="M46 78v44M24 100h44" stroke="#ffffff" stroke-width="4"/>
      <rect x="108" y="72" width="42" height="74" rx="6" fill="#1d4ed8"/>
      <circle cx="116" cy="109" r="3" fill="#e2e8f0"/>
    </g>
  </g>
</svg>
